<?xml version="1.0" encoding="UTF-8" standalone="no"?>
<svg
   xmlns:dc="http://purl.org/dc/elements/1.1/"
   xmlns:cc="http://creativecommons.org/ns#"
   xmlns:rdf="http://www.w3.org/1999/02/22-rdf-syntax-ns#"
   xmlns:svg="http://www.w3.org/2000/svg"
   xmlns="http://www.w3.org/2000/svg"
   xmlns:xlink="http://www.w3.org/1999/xlink"
   id="svg8"
   version="1.1"
   viewBox="0 0 271.99166 271.99166"
   height="1028"
   width="1028">
  <defs
     id="defs">
    <filter
       id="textShadow"
       style="color-interpolation-filters:sRGB">
      <feFlood
         id="feFlood1155"
         result="flood"
         flood-color="rgb(30,30,30)"
         flood-opacity="0.75" />
      <feComposite
         id="feComposite1157"
         result="composite1"
         operator="in"
         in2="SourceGraphic"
         in="flood" />
      <feGaussianBlur
         id="feGaussianBlur1159"
         result="blur"
         stdDeviation="3"
         in="composite1" />
      <feOffset
         id="feOffset1161"
         result="offset"
         dy="2"
         dx="2" />
      <feComposite
         id="feComposite1163"
         result="composite2"
         operator="over"
         in2="offset"
         in="SourceGraphic" />
    </filter>
    <clipPath
       id="circleClip"
       clipPathUnits="userSpaceOnUse">
      <circle
         r="128"
         style="fill:#000000;fill-opacity:0.25;"
         id="circle1187"
         cx="128"
         cy="169" />
    </clipPath>
  </defs>
  <metadata
     id="metadata5">
    <rdf:RDF>
      <cc:Work
         rdf:about="">
        <dc:format>image/svg+xml</dc:format>
        <dc:type
           rdf:resource="http://purl.org/dc/dcmitype/StillImage" />
        <dc:title></dc:title>
      </cc:Work>
    </rdf:RDF>
  </metadata>
  <g
     transform="translate(0,-25.008347)"
     id="layer1">
    <image
       xlink:href="images/Pink_sunset_at_Visevnik.jpg"
       transform="matrix(1.0624674,0,0,1.0624674,0,-18.552832)"
       clip-path="url(#circleClip)"
       width="704.36475"
       height="343.25006"
       preserveAspectRatio="none"
       id="visevnik"
       x="-154.33276"
       y="39.593815">
      <desc
         id="desc6019">Impact's default background</desc>
      <title
         id="title6017">Visevnik</title>
    </image>
    <g
       transform="matrix(1.0624674,0,0,1.0624674,0,-18.552832)"
       style="filter:url(#textShadow)"
       id="impactText"
       aria-label="Impact">
      <path
         id="path1189"
         style="font-style:normal;font-variant:normal;font-weight:normal;font-stretch:normal;font-size:57.85555649px;font-family:Comfortaa;-inkscape-font-specification:Comfortaa;letter-spacing:-1.32291663px;fill:#ffffff;fill-opacity:1;stroke:#ffffff;stroke-width:0.26458332px;stroke-opacity:1"
         d="m 31.278354,115.58067 q 0,-0.98355 0.636411,-1.61996 0.694267,-0.63641 1.619956,-0.63641 0.983544,0 1.619955,0.63641 0.636411,0.63641 0.636411,1.61996 v 40.67245 q 0,0.92569 -0.636411,1.61996 -0.636411,0.63641 -1.619955,0.63641 -0.925689,0 -1.619956,-0.63641 -0.636411,-0.69427 -0.636411,-1.61996 z" />
      <path
         id="path1191"
         style="font-style:normal;font-variant:normal;font-weight:normal;font-stretch:normal;font-size:57.85555649px;font-family:Comfortaa;-inkscape-font-specification:Comfortaa;letter-spacing:-1.32291663px;fill:#ffffff;fill-opacity:1;stroke:#ffffff;stroke-width:0.26458332px;stroke-opacity:1"
         d="m 78.74756,126.51537 q 3.413477,0 6.016977,1.61995 2.661356,1.61996 4.107745,4.62845 1.504244,2.95063 1.504244,6.88481 v 16.6624 q 0,0.98354 -0.636411,1.61996 -0.578555,0.57855 -1.5621,0.57855 -0.983544,0 -1.619955,-0.57855 -0.636411,-0.63642 -0.636411,-1.61996 v -16.6624 q 0,-4.10774 -2.140656,-6.47982 -2.0828,-2.42994 -5.496278,-2.42994 -3.6449,0 -5.901267,2.42994 -2.256366,2.42993 -2.198511,6.36411 v 0.11571 16.6624 q 0,0.98354 -0.636411,1.61996 -0.578556,0.57855 -1.5621,0.57855 -0.983544,0 -1.619956,-0.57855 -0.636411,-0.63642 -0.636411,-1.61996 v -16.6624 q 0,-4.10774 -2.140655,-6.47982 -2.0828,-2.42994 -5.496278,-2.42994 -3.587045,0 -5.901267,2.37208 -2.314222,2.37208 -2.314222,6.07484 v 17.12524 q 0,0.98354 -0.636411,1.61996 -0.578556,0.57855 -1.5621,0.57855 -0.983545,0 -1.619956,-0.57855 -0.636411,-0.63642 -0.636411,-1.61996 v -27.19211 q 0,-0.98355 0.636411,-1.61996 0.636411,-0.63641 1.619956,-0.63641 0.983544,0 1.5621,0.63641 0.636411,0.63641 0.636411,1.61996 v 1.27282 q 1.619955,-1.85138 3.818467,-2.83492 2.256366,-1.0414 4.859866,-1.0414 3.182056,0 5.7277,1.44639 2.545645,1.44639 4.049889,4.04989 1.677812,-2.6035 4.339167,-4.04989 2.719211,-1.44639 6.074834,-1.44639 z" />
      <path
         id="path1193"
         style="font-style:normal;font-variant:normal;font-weight:normal;font-stretch:normal;font-size:57.85555649px;font-family:Comfortaa;-inkscape-font-specification:Comfortaa;letter-spacing:-1.32291663px;fill:#ffffff;fill-opacity:1;stroke:#ffffff;stroke-width:0.26458332px;stroke-opacity:1"
         d="m 114.98827,126.57322 q 4.51273,0 8.15763,2.14066 3.70276,2.0828 5.78556,5.78556 2.14066,3.70275 2.14066,8.21548 0,4.51274 -2.0828,8.21549 -2.02495,3.6449 -5.61199,5.78556 -3.52919,2.0828 -7.92621,2.0828 -3.76062,0 -6.88482,-1.5621 -3.1242,-1.61996 -5.14914,-4.39702 v 16.95167 q 0,0.98355 -0.63641,1.61996 -0.63641,0.63641 -1.61996,0.63641 -0.98354,0 -1.619952,-0.63641 -0.578556,-0.63641 -0.578556,-1.61996 v -12.95964 q -0.05786,-0.17357 -0.05786,-0.5207 v -13.59606 q 0,-4.51273 2.082798,-8.21548 2.14065,-3.70276 5.78555,-5.78556 3.70276,-2.14066 8.21549,-2.14066 z m 0,28.17566 q 3.29777,0 5.95912,-1.5621 2.71921,-1.5621 4.22346,-4.28131 1.5621,-2.77707 1.5621,-6.19055 0,-3.41347 -1.5621,-6.13268 -1.50425,-2.77707 -4.22346,-4.33917 -2.66135,-1.61996 -5.95912,-1.61996 -3.29777,0 -5.95912,1.61996 -2.66136,1.5621 -4.22346,4.33917 -1.50424,2.71921 -1.50424,6.13268 0,0.98355 0.0579,1.44639 0.0579,0.11571 0.0579,0.28928 0.57856,4.51273 3.76061,7.40551 3.23991,2.89278 7.8105,2.89278 z" />
      <path
         id="path1195"
         style="font-style:normal;font-variant:normal;font-weight:normal;font-stretch:normal;font-size:57.85555649px;font-family:Comfortaa;-inkscape-font-specification:Comfortaa;letter-spacing:-1.32291663px;fill:#ffffff;fill-opacity:1;stroke:#ffffff;stroke-width:0.26458332px;stroke-opacity:1"
         d="m 152.89322,126.57322 q 4.51274,0 8.15764,2.14066 3.70275,2.0828 5.78555,5.78556 2.14066,3.70275 2.14066,8.21548 v 13.59606 q 0,0.92569 -0.63641,1.5621 -0.63641,0.63641 -1.61996,0.63641 -0.98354,0 -1.61995,-0.57855 -0.63641,-0.63642 -0.63641,-1.61996 v -3.47133 q -2.02495,2.77706 -5.14915,4.39702 -3.1242,1.5621 -6.88481,1.5621 -4.39702,0 -7.98407,-2.0828 -3.52919,-2.14066 -5.61199,-5.78556 -2.02494,-3.70275 -2.02494,-8.21549 0,-4.51273 2.0828,-8.21548 2.14065,-3.70276 5.78555,-5.78556 3.70276,-2.14066 8.21549,-2.14066 z m 0,28.17566 q 3.29777,0 5.95913,-1.5621 2.66135,-1.5621 4.1656,-4.28131 1.5621,-2.77707 1.5621,-6.19055 0,-3.41347 -1.5621,-6.13268 -1.50425,-2.77707 -4.1656,-4.33917 -2.66136,-1.61996 -5.95913,-1.61996 -3.29776,0 -6.01697,1.61996 -2.66136,1.5621 -4.22346,4.33917 -1.50424,2.71921 -1.50424,6.13268 0,3.41348 1.50424,6.19055 1.5621,2.71921 4.22346,4.28131 2.71921,1.5621 6.01697,1.5621 z" />
      <path
         id="path1197"
         style="font-style:normal;font-variant:normal;font-weight:normal;font-stretch:normal;font-size:57.85555649px;font-family:Comfortaa;-inkscape-font-specification:Comfortaa;letter-spacing:-1.32291663px;fill:#ffffff;fill-opacity:1;stroke:#ffffff;stroke-width:0.26458332px;stroke-opacity:1"
         d="m 189.91317,126.57322 q 7.23194,0 11.74468,5.55414 0.46284,0.5207 0.46284,1.21496 0,0.92569 -0.98354,1.61996 -0.5207,0.34713 -1.09926,0.34713 -0.86783,0 -1.67781,-0.86783 -1.73567,-1.90923 -3.81847,-2.83492 -2.0828,-0.98355 -4.62844,-0.98355 -3.18206,0 -5.66984,1.5621 -2.48779,1.50425 -3.87633,4.28131 -1.33067,2.77707 -1.33067,6.2484 0,3.41348 1.44638,6.19055 1.44639,2.71921 4.04989,4.28131 2.6035,1.5621 5.95913,1.5621 4.62844,0 7.46336,-2.48779 0.75212,-0.63641 1.5621,-0.63641 0.69427,0 1.27282,0.46284 0.80998,0.69427 0.80998,1.5621 0,0.75213 -0.57855,1.27283 -4.1656,3.87632 -10.52971,3.87632 -4.51274,0 -8.09978,-2.0828 -3.58705,-2.14066 -5.66985,-5.78556 -2.02494,-3.70275 -2.02494,-8.21549 0,-4.62844 1.96709,-8.27334 1.96709,-3.70276 5.43842,-5.78556 3.47133,-2.0828 7.8105,-2.0828 z" />
      <path
         id="path1199"
         style="font-style:normal;font-variant:normal;font-weight:normal;font-stretch:normal;font-size:57.85555649px;font-family:Comfortaa;-inkscape-font-specification:Comfortaa;letter-spacing:-1.32291663px;fill:#ffffff;fill-opacity:1;stroke:#ffffff;stroke-width:0.26458332px;stroke-opacity:1"
         d="m 223.45999,154.05461 q 0.92569,0 1.50424,0.63641 0.57856,0.63642 0.57856,1.61996 0,0.92569 -0.69427,1.5621 -0.69426,0.63641 -1.73566,0.63641 h -1.21497 q -3.06635,0 -5.49628,-1.44639 -2.42993,-1.50424 -3.81847,-3.99203 -1.33067,-2.54565 -1.33067,-5.7277 v -15.44744 h -3.76061 q -0.92569,0 -1.50425,-0.5207 -0.5207,-0.57855 -0.5207,-1.38853 0,-0.86783 0.5207,-1.38853 0.57856,-0.57856 1.50425,-0.57856 h 3.76061 V 119.052 q 0,-0.98354 0.57855,-1.61995 0.63641,-0.63642 1.61996,-0.63642 0.98354,0 1.61995,0.63642 0.63641,0.63641 0.63641,1.61995 v 8.96761 h 6.53768 q 0.92569,0 1.44639,0.57856 0.57856,0.5207 0.57856,1.38853 0,0.80998 -0.57856,1.38853 -0.5207,0.5207 -1.44639,0.5207 h -6.53768 v 15.44744 q 0,2.95063 1.73567,4.85987 1.73567,1.85137 4.45488,1.85137 z" />
    </g>
  </g>
</svg>
